<mxfile host="65bd71144e">
    <diagram id="A_tYOe9iZ1WcpGx81PBD" name="Page-1">
        <mxGraphModel dx="1199" dy="775" grid="1" gridSize="10" guides="1" tooltips="1" connect="1" arrows="1" fold="1" page="1" pageScale="1" pageWidth="827" pageHeight="1169" math="0" shadow="0">
            <root>
                <mxCell id="0"/>
                <mxCell id="1" parent="0"/>
                <mxCell id="7" style="edgeStyle=none;html=1;fontSize=14;" parent="1" source="2" target="4" edge="1">
                    <mxGeometry relative="1" as="geometry"/>
                </mxCell>
                <mxCell id="8" style="edgeStyle=orthogonalEdgeStyle;html=1;entryX=0.5;entryY=0;entryDx=0;entryDy=0;fontSize=14;rounded=0;" parent="1" source="2" target="5" edge="1">
                    <mxGeometry relative="1" as="geometry">
                        <Array as="points">
                            <mxPoint x="480" y="120"/>
                            <mxPoint x="190" y="120"/>
                        </Array>
                    </mxGeometry>
                </mxCell>
                <mxCell id="9" style="edgeStyle=orthogonalEdgeStyle;rounded=0;html=1;fontSize=14;entryX=0.5;entryY=0;entryDx=0;entryDy=0;" parent="1" source="2" target="6" edge="1">
                    <mxGeometry relative="1" as="geometry">
                        <Array as="points">
                            <mxPoint x="480" y="120"/>
                            <mxPoint x="880" y="120"/>
                        </Array>
                    </mxGeometry>
                </mxCell>
                <mxCell id="2" value="Guessing a Hidden Number" style="rounded=0;whiteSpace=wrap;html=1;fontSize=16;" parent="1" vertex="1">
                    <mxGeometry x="700" width="160" height="80" as="geometry"/>
                </mxCell>
                <mxCell id="15" style="edgeStyle=orthogonalEdgeStyle;rounded=0;html=1;entryX=0.5;entryY=0;entryDx=0;entryDy=0;fontSize=14;" parent="1" source="4" edge="1">
                    <mxGeometry relative="1" as="geometry">
                        <mxPoint x="480" y="280" as="targetPoint"/>
                        <Array as="points">
                            <mxPoint x="780" y="260"/>
                            <mxPoint x="480" y="260"/>
                        </Array>
                    </mxGeometry>
                </mxCell>
                <mxCell id="35" style="edgeStyle=orthogonalEdgeStyle;html=1;entryX=0.5;entryY=0;entryDx=0;entryDy=0;rounded=0;" parent="1" source="4" target="34" edge="1">
                    <mxGeometry relative="1" as="geometry">
                        <Array as="points">
                            <mxPoint x="780" y="260"/>
                            <mxPoint x="1080" y="260"/>
                        </Array>
                    </mxGeometry>
                </mxCell>
                <mxCell id="41" style="edgeStyle=orthogonalEdgeStyle;html=1;entryX=0.5;entryY=0;entryDx=0;entryDy=0;rounded=0;" edge="1" parent="1" source="4" target="38">
                    <mxGeometry relative="1" as="geometry"/>
                </mxCell>
                <mxCell id="42" style="edgeStyle=orthogonalEdgeStyle;rounded=0;html=1;" edge="1" parent="1" source="4" target="26">
                    <mxGeometry relative="1" as="geometry"/>
                </mxCell>
                <mxCell id="4" value="Process" style="rounded=0;whiteSpace=wrap;html=1;fontSize=16;" parent="1" vertex="1">
                    <mxGeometry x="700" y="160" width="160" height="80" as="geometry"/>
                </mxCell>
                <mxCell id="11" style="edgeStyle=orthogonalEdgeStyle;rounded=0;html=1;entryX=0.5;entryY=0;entryDx=0;entryDy=0;fontSize=14;" parent="1" source="5" target="10" edge="1">
                    <mxGeometry relative="1" as="geometry"/>
                </mxCell>
                <mxCell id="31" style="edgeStyle=none;html=1;entryX=0.5;entryY=0;entryDx=0;entryDy=0;rounded=0;" parent="1" source="5" target="30" edge="1">
                    <mxGeometry relative="1" as="geometry">
                        <Array as="points">
                            <mxPoint x="180" y="260"/>
                            <mxPoint x="80" y="260"/>
                        </Array>
                    </mxGeometry>
                </mxCell>
                <mxCell id="5" value="Input" style="rounded=0;whiteSpace=wrap;html=1;fontSize=16;" parent="1" vertex="1">
                    <mxGeometry x="100" y="160" width="160" height="80" as="geometry"/>
                </mxCell>
                <mxCell id="19" style="edgeStyle=orthogonalEdgeStyle;rounded=0;html=1;entryX=0.5;entryY=0;entryDx=0;entryDy=0;fontSize=14;" parent="1" source="6" edge="1">
                    <mxGeometry relative="1" as="geometry">
                        <mxPoint x="1680" y="279.9999999999999" as="targetPoint"/>
                        <Array as="points">
                            <mxPoint x="1780" y="260"/>
                            <mxPoint x="1680" y="260"/>
                        </Array>
                    </mxGeometry>
                </mxCell>
                <mxCell id="29" style="edgeStyle=orthogonalEdgeStyle;rounded=0;html=1;entryX=0.5;entryY=0;entryDx=0;entryDy=0;fontSize=13;" parent="1" source="6" target="28" edge="1">
                    <mxGeometry relative="1" as="geometry">
                        <Array as="points">
                            <mxPoint x="1780" y="260"/>
                            <mxPoint x="1480" y="260"/>
                        </Array>
                    </mxGeometry>
                </mxCell>
                <mxCell id="33" style="edgeStyle=orthogonalEdgeStyle;rounded=0;html=1;entryX=0.5;entryY=0;entryDx=0;entryDy=0;" parent="1" source="6" target="21" edge="1">
                    <mxGeometry relative="1" as="geometry">
                        <Array as="points">
                            <mxPoint x="1780" y="260"/>
                            <mxPoint x="2280" y="260"/>
                        </Array>
                    </mxGeometry>
                </mxCell>
                <mxCell id="37" style="edgeStyle=orthogonalEdgeStyle;rounded=0;html=1;entryX=0.5;entryY=0;entryDx=0;entryDy=0;" parent="1" source="6" target="36" edge="1">
                    <mxGeometry relative="1" as="geometry">
                        <Array as="points">
                            <mxPoint x="1780" y="260"/>
                            <mxPoint x="1280" y="260"/>
                        </Array>
                    </mxGeometry>
                </mxCell>
                <mxCell id="45" style="edgeStyle=orthogonalEdgeStyle;rounded=0;html=1;entryX=0.5;entryY=0;entryDx=0;entryDy=0;" edge="1" parent="1" source="6" target="44">
                    <mxGeometry relative="1" as="geometry"/>
                </mxCell>
                <mxCell id="46" style="edgeStyle=orthogonalEdgeStyle;rounded=0;html=1;entryX=0.5;entryY=0;entryDx=0;entryDy=0;" edge="1" parent="1" source="6" target="32">
                    <mxGeometry relative="1" as="geometry">
                        <Array as="points">
                            <mxPoint x="1780" y="260"/>
                            <mxPoint x="2080" y="260"/>
                        </Array>
                    </mxGeometry>
                </mxCell>
                <mxCell id="6" value="Output" style="rounded=0;whiteSpace=wrap;html=1;fontSize=16;" parent="1" vertex="1">
                    <mxGeometry x="1700" y="160" width="160" height="80" as="geometry"/>
                </mxCell>
                <mxCell id="10" value="Set the chosen number" style="rounded=0;whiteSpace=wrap;html=1;fontSize=16;" parent="1" vertex="1">
                    <mxGeometry x="200" y="280" width="160" height="80" as="geometry"/>
                </mxCell>
                <mxCell id="21" value="Show the program as done" style="rounded=0;whiteSpace=wrap;html=1;fontSize=16;" parent="1" vertex="1">
                    <mxGeometry x="2200" y="280" width="160" height="80" as="geometry"/>
                </mxCell>
                <mxCell id="26" value="Check if the chosen number is higher than the random number" style="rounded=0;whiteSpace=wrap;html=1;fontSize=16;" parent="1" vertex="1">
                    <mxGeometry x="800" y="280" width="160" height="80" as="geometry"/>
                </mxCell>
                <mxCell id="28" value="Show if the chosen number is correct" style="rounded=0;whiteSpace=wrap;html=1;fontSize=16;" parent="1" vertex="1">
                    <mxGeometry x="1400" y="280" width="160" height="80" as="geometry"/>
                </mxCell>
                <mxCell id="30" value="Calculate a random number" style="rounded=0;whiteSpace=wrap;html=1;fontSize=16;" parent="1" vertex="1">
                    <mxGeometry y="280" width="160" height="80" as="geometry"/>
                </mxCell>
                <mxCell id="32" value="Show the random number if correct" style="rounded=0;whiteSpace=wrap;html=1;fontSize=16;" parent="1" vertex="1">
                    <mxGeometry x="2000" y="280" width="160" height="80" as="geometry"/>
                </mxCell>
                <mxCell id="34" value="Check if the chosen number is lower than the random number" style="rounded=0;whiteSpace=wrap;html=1;fontSize=16;" parent="1" vertex="1">
                    <mxGeometry x="1000" y="280" width="160" height="80" as="geometry"/>
                </mxCell>
                <mxCell id="36" value="Show if the chosen number is an integer or not" style="rounded=0;whiteSpace=wrap;html=1;fontSize=16;" parent="1" vertex="1">
                    <mxGeometry x="1200" y="280" width="160" height="80" as="geometry"/>
                </mxCell>
                <mxCell id="38" value="&lt;span&gt;Check if the chosen number is equal to the random number&lt;/span&gt;" style="rounded=0;whiteSpace=wrap;html=1;fontSize=16;" vertex="1" parent="1">
                    <mxGeometry x="600" y="280" width="160" height="80" as="geometry"/>
                </mxCell>
                <mxCell id="39" value="Check if the chosen number is an integer" style="rounded=0;whiteSpace=wrap;html=1;fontSize=16;" vertex="1" parent="1">
                    <mxGeometry x="390" y="280" width="160" height="80" as="geometry"/>
                </mxCell>
                <mxCell id="43" value="Show if the chosen number is higher than the random number" style="rounded=0;whiteSpace=wrap;html=1;fontSize=16;" vertex="1" parent="1">
                    <mxGeometry x="1600" y="280" width="160" height="80" as="geometry"/>
                </mxCell>
                <mxCell id="44" value="Show if the chosen number is lower than the random number" style="rounded=0;whiteSpace=wrap;html=1;fontSize=16;" vertex="1" parent="1">
                    <mxGeometry x="1800" y="280" width="160" height="80" as="geometry"/>
                </mxCell>
            </root>
        </mxGraphModel>
    </diagram>
</mxfile>